<?xml version="1.0" encoding="UTF-8" standalone="no"?>
<svg width="146px" height="18px" viewBox="0 0 146 18" version="1.1" xmlns="http://www.w3.org/2000/svg" xmlns:xlink="http://www.w3.org/1999/xlink" xmlns:sketch="http://www.bohemiancoding.com/sketch/ns">
    <!-- Generator: Sketch 3.3.2 (12043) - http://www.bohemiancoding.com/sketch -->
    <title>Slice 1</title>
    <desc>Created with Sketch.</desc>
    <defs></defs>
    <g id="Page-1" stroke="none" stroke-width="1" fill="none" fill-rule="evenodd" sketch:type="MSPage">
        <text id="Sign-in-with" fill="#777777" sketch:type="MSTextLayer" font-family="Merriweather" font-size="14" font-weight="normal">
            <tspan x="0" y="13">Sign in with</tspan>
        </text>
        <g id="slack-grey" sketch:type="MSLayerGroup" transform="translate(86.000000, 0.000000)" fill="#777777">
            <g id="Group-4" sketch:type="MSShapeGroup">
                <g id="Fill-1-Clipped" transform="translate(7.176471, 6.071429)">
                    <path d="M0.781440481,1.71032143 L1.54674548,3.99218507 L1.54693454,3.99218507 L3.86288962,3.18120779 L3.09758463,0.899344156 L0.781440481,1.71032143" id="Fill-1"></path>
                </g>
                <g id="Fill-3-Clipped">
                    <path d="M9.64260298,12.8044772 C9.71217616,13.0119546 9.69856401,13.2346932 9.60422429,13.4317386 C9.50969551,13.628591 9.34597166,13.776375 9.14292384,13.847466 C9.05860418,13.8770228 8.97088147,13.8918978 8.88240253,13.8918978 L8.86727793,13.8918978 C8.53075547,13.8853296 8.23147736,13.6622046 8.12239114,13.3368864 L7.72404687,12.149591 L6.59934345,12.5434886 C6.51464567,12.5730454 6.42673391,12.5881136 6.33787686,12.5881136 L6.32350847,12.5879204 C5.98717508,12.5813522 5.6877079,12.3582272 5.5786217,12.0329091 C5.43493796,11.604625 5.65897116,11.1365455 6.07830082,10.9897273 L7.20300424,10.5960227 L6.43769924,8.3141591 L5.31299582,8.70805682 C5.22848709,8.73761364 5.14095344,8.75248864 5.05247451,8.75248864 L5.03734991,8.75229546 C4.70082745,8.74592046 4.40154933,8.52279546 4.29227407,8.1972841 C4.22270089,7.98980682 4.23631303,7.76706818 4.33065275,7.5702159 C4.42518154,7.37317046 4.58890538,7.22538636 4.7919532,7.15429546 L5.91665661,6.7605909 L5.51831234,5.57329546 C5.37462859,5.14501136 5.59885085,4.677125 6.01799146,4.53030682 C6.10250019,4.50094318 6.19003384,4.48568182 6.27851278,4.48568182 C6.6218413,4.48568182 6.92735832,4.70880682 7.03871322,5.04088636 L7.43686844,6.22818182 L9.75282353,5.41720454 L9.35466831,4.2299091 C9.28509513,4.02243182 9.29870727,3.79969318 9.393047,3.6028409 C9.48757577,3.40579546 9.65129961,3.25801136 9.85434744,3.18692046 C9.93885616,3.15736364 10.0265789,3.14248864 10.1148688,3.14248864 C10.4581973,3.14248864 10.7637143,3.36561364 10.8750692,3.6975 L11.2732244,4.88479546 L12.3981169,4.49089772 C12.4824366,4.4615341 12.5701592,4.4464659 12.6586382,4.4464659 C13.0017777,4.4464659 13.3072947,4.6695909 13.4186496,5.00167046 C13.4882228,5.20895454 13.4746107,5.43188636 13.3802709,5.62893182 C13.2857421,5.8257841 13.1220182,5.973375 12.9189705,6.0446591 L11.7942671,6.43836364 L12.559572,8.72022728 L13.6844645,8.32652272 C13.7687842,8.2969659 13.8565069,8.28189772 13.9447968,8.28189772 C14.2881253,8.28189772 14.5936423,8.50502272 14.7049972,8.83710228 C14.848681,9.26538636 14.6246477,9.73327272 14.2053181,9.8800909 L13.0808038,10.2737955 L13.4789589,11.4610909 C13.5485321,11.6685682 13.5349199,11.8915 13.4405803,12.0883523 C13.3460515,12.2853978 13.1823276,12.4329886 12.9792798,12.5040796 C12.8947711,12.5336364 12.8072374,12.5487046 12.7187585,12.5487046 L12.7036339,12.5485114 C12.3671114,12.5421364 12.0676442,12.3190114 11.9585581,11.9935 L11.5604028,10.8062045 L9.24444776,11.6171818 L9.64260298,12.8044772 L9.64260298,12.8044772 Z M17.0209524,6.01973864 C15.6691908,1.76857954 13.9506575,0.0343863636 11.0892714,0.0343863636 C9.98838925,0.0343863636 8.66876748,0.294988636 7.05459406,0.830875 C4.13365477,1.80064772 2.48771967,2.92168182 1.71768824,4.46617046 C0.947467742,6.0104659 1.02725003,8.03018182 1.97631898,11.0146477 C3.32808052,15.2658068 5.04661373,16.9998068 7.90818894,17 L7.9087561,17 C9.00926015,17 10.3286929,16.7393978 11.9426772,16.2037046 C14.8636166,15.2339318 16.5095516,14.1127046 17.2797721,12.568409 C18.0498036,11.0241136 17.9700212,9.00420454 17.0209524,6.01973864 L17.0209524,6.01973864 L17.0209524,6.01973864 Z" id="Fill-3"></path>
                </g>
            </g>
            <path d="M28.2398169,4.89445454 C28.7434662,5.11893182 28.7801434,5.28738636 28.3863365,6.05470454 C27.9834548,6.84076136 27.8826871,6.88751136 27.3881126,6.68157954 C26.7653569,6.41035228 25.9686685,6.20442046 25.4559443,6.20442046 C24.6135038,6.20442046 24.0548388,6.513125 24.0548388,6.98101136 C24.0548388,8.52511364 28.8809111,7.69230682 28.8809111,10.9860568 C28.8809111,12.6422046 27.4888803,13.7464318 25.4009285,13.7464318 C24.3021261,13.7464318 22.9467725,13.3722386 22.0126391,12.8856136 C21.5456668,12.6422046 21.5182535,12.5019546 21.9211352,11.7158977 C22.2691901,11.0235341 22.3790326,10.9485795 22.8826819,11.1637841 C23.6793705,11.5194318 24.6866691,11.7906591 25.3644405,11.7906591 C26.1335266,11.7906591 26.6464398,11.4726818 26.6464398,11.0047955 C26.6464398,9.50763636 21.7379384,10.2187386 21.7379384,7.02776136 C21.7379384,5.33413636 23.1207054,4.20189772 25.1903185,4.20189772 C26.1611291,4.20189772 27.3881126,4.50132954 28.2398169,4.89445454" id="Fill-5" sketch:type="MSShapeGroup"></path>
            <path d="M32.1321339,0.98290909 L32.1321339,13.2598068 C32.1321339,13.447 31.9398624,13.643466 31.6651617,13.643466 L30.4013119,13.643466 C30.1266113,13.643466 29.9343398,13.447 29.9343398,13.2598068 L29.9343398,0.98290909 C29.9343398,0.374772728 30.0991979,0.318556818 31.0331423,0.318556818 C32.0954568,0.318556818 32.1321339,0.393511364 32.1321339,0.98290909" id="Fill-6" sketch:type="MSShapeGroup"></path>
            <path d="M35.2914748,10.9485795 C35.2914748,11.5754545 35.8134627,11.9965909 36.6010765,11.9965909 C37.5533594,11.9965909 38.4141384,11.5287045 38.9177878,10.733375 L38.9177878,9.9098409 C38.4141384,9.713375 37.8006467,9.60113636 37.2512454,9.60113636 C36.0790886,9.60113636 35.2914748,10.1719886 35.2914748,10.9485795 L35.2914748,10.9485795 L35.2914748,10.9485795 Z M41.1155819,7.88877272 L41.1155819,13.1755796 C41.1155819,13.4562728 40.9233104,13.6529318 40.6486097,13.6529318 L39.4030986,13.6529318 C39.1193232,13.6529318 38.9177878,13.4377272 38.9361263,13.1475682 L38.954465,12.576716 C38.2768827,13.344034 37.3060721,13.7464318 36.3354507,13.7464318 C34.4488452,13.7464318 33.1851845,12.6329318 33.1851845,10.9673182 C33.1851845,9.19873864 34.6138925,8.01047728 36.7566708,8.00101136 C37.5716979,8.00101136 38.3133708,8.15072728 38.9177878,8.4034091 L38.9177878,7.79507954 C38.9177878,6.82202272 38.1668511,6.24189772 36.8941157,6.24189772 C36.2987734,6.24189772 35.5661753,6.48511364 34.9800969,6.83129546 C34.5314633,7.09325 34.4214319,7.07470454 33.9361211,6.33539772 C33.4598852,5.5960909 33.4782237,5.4558409 33.9361211,5.1564091 C34.8152388,4.5762841 36.0057342,4.20189772 37.1047258,4.20189772 C39.5679568,4.20189772 41.1155819,5.56807954 41.1155819,7.88877272 L41.1155819,7.88877272 L41.1155819,7.88877272 Z" id="Fill-7" sketch:type="MSShapeGroup"></path>
            <g id="Group-11" transform="translate(42.032510, 0.193182)" sketch:type="MSShapeGroup">
                <path d="M7.6551296,4.72001136 C8.11302701,4.99123864 8.13136559,5.14095454 7.62771626,5.9362841 C7.15148026,6.68486364 7.06905117,6.73180682 6.56540183,6.4696591 C6.18085877,6.26392046 5.56717793,6.08619318 5.06352859,6.08619318 C3.47922625,6.08619318 2.42617565,7.15275 2.42617565,8.7623409 C2.42617565,10.4372273 3.47922625,11.5601932 5.06352859,11.5601932 C5.61311891,11.5601932 6.29977597,11.3449886 6.74859861,11.0923068 C7.20649602,10.8208864 7.30726369,10.839625 7.79257445,11.5601932 C8.23213328,12.2338182 8.22286944,12.3928068 7.82906256,12.6736932 C7.12406692,13.169591 6.00673675,13.55325 5.02685142,13.55325 C2.09645927,13.55325 0.136688615,11.6349545 0.136688615,8.7623409 C0.136688615,5.90827272 2.09645927,4.0087159 5.04519001,4.0087159 C5.94264624,4.0087159 6.99588589,4.31761364 7.6551296,4.72001136" id="Fill-8"></path>
                <path d="M17.2159594,12.290034 C17.5821638,12.7671932 17.4356442,12.9356478 16.5198494,13.2725568 C15.5859051,13.6187386 15.4577241,13.6 15.1280078,13.1603182 L12.5089933,9.58568182 L11.3366474,10.7459318 L11.3366474,13.066625 C11.3366474,13.2538182 11.1443759,13.450284 10.8696753,13.450284 L9.60601454,13.450284 C9.33131391,13.450284 9.13885333,13.2538182 9.13885333,13.066625 L9.13885333,0.789727272 C9.13885333,0.18159091 9.30371151,0.125375 10.2378449,0.125375 C11.3001593,0.125375 11.3366474,0.200329546 11.3366474,0.789727272 L11.3366474,7.77035228 L14.9264724,4.252125 C15.3202793,3.8684659 15.5401532,3.89647728 16.2451489,4.37363636 C17.0236879,4.88827272 17.0785146,5.0287159 16.7030462,5.4029091 L14.0290161,8.06051136 L17.2159594,12.290034" id="Fill-10"></path>
            </g>
        </g>
    </g>
</svg>