<?xml version="1.0" encoding="UTF-8" standalone="no"?>
<svg width="108px" height="14px" viewBox="0 0 108 14" version="1.1" xmlns="http://www.w3.org/2000/svg" xmlns:xlink="http://www.w3.org/1999/xlink" xmlns:sketch="http://www.bohemiancoding.com/sketch/ns">
    <!-- Generator: Sketch 3.3.1 (12005) - http://www.bohemiancoding.com/sketch -->
    <title>slack-grey</title>
    <desc>Created with Sketch.</desc>
    <defs></defs>
    <g id="Page-1" stroke="none" stroke-width="1" fill="none" fill-rule="evenodd" sketch:type="MSPage">
        <g id="slack-grey" sketch:type="MSLayerGroup">
            <g id="Page-1">
                <g id="slack-grey">
                    <g id="Page-1">
                        <g id="slack-grey" transform="translate(58.000000, 0.000000)" fill="#777777" sketch:type="MSShapeGroup">
                            <g id="Page-1">
                                <g id="slack_monochrome_w">
                                    <g id="Group-4">
                                        <g id="Fill-1-Clipped" transform="translate(6.000000, 5.000000)">
                                            <path d="M0.653335484,1.4085 L1.29318065,3.28768182 L1.29333871,3.28768182 L3.22962903,2.61981818 L2.58978387,0.740636364 L0.653335484,1.4085" id="Fill-1"></path>
                                        </g>
                                        <g id="Fill-3-Clipped">
                                            <path d="M8.06184839,10.5448636 C8.12001613,10.7157273 8.10863548,10.8991591 8.02976129,11.0614318 C7.95072903,11.2235455 7.81384516,11.34525 7.64408387,11.4037955 C7.5735871,11.4281364 7.50024516,11.4403864 7.42627097,11.4403864 L7.41362581,11.4403864 C7.13227097,11.4349773 6.88205484,11.2512273 6.79085161,10.9833182 L6.45780968,10.0055455 L5.51748387,10.3299318 C5.44667097,10.3542727 5.37317097,10.3666818 5.29888065,10.3666818 L5.28686774,10.3665227 C5.00567097,10.3611136 4.75529677,10.1773636 4.66409355,9.90945455 C4.54396452,9.55675 4.73127097,9.17127273 5.08185806,9.05036364 L6.02218387,8.72613636 L5.38233871,6.84695455 L4.4420129,7.17134091 C4.37135806,7.19568182 4.29817419,7.20793182 4.2242,7.20793182 L4.21155484,7.20777273 C3.9302,7.20252273 3.67998387,7.01877273 3.58862258,6.75070455 C3.53045484,6.57984091 3.54183548,6.39640909 3.62070968,6.23429545 C3.69974194,6.07202273 3.83662581,5.95031818 4.0063871,5.89177273 L4.9467129,5.56754545 L4.61367097,4.58977273 C4.49354194,4.23706818 4.68100645,3.85175 5.03143548,3.73084091 C5.10209032,3.70665909 5.17527419,3.69409091 5.24924839,3.69409091 C5.53629355,3.69409091 5.79172581,3.87784091 5.88482581,4.15131818 L6.21770968,5.12909091 L8.154,4.46122727 L7.82111613,3.48345455 C7.76294839,3.31259091 7.77432903,3.12915909 7.85320323,2.96704545 C7.93223548,2.80477273 8.06911935,2.68306818 8.23888065,2.62452273 C8.30953548,2.60018182 8.38287742,2.58793182 8.45669355,2.58793182 C8.74373871,2.58793182 8.99917097,2.77168182 9.09227097,3.045 L9.42515484,4.02277273 L10.3656387,3.69838636 C10.4361355,3.67420455 10.5094774,3.66179545 10.5834516,3.66179545 C10.8703387,3.66179545 11.125771,3.84554545 11.218871,4.11902273 C11.2770387,4.28972727 11.2656581,4.47331818 11.1867839,4.63559091 C11.1077516,4.79770455 10.9708677,4.91925 10.8011065,4.97795455 L9.86078065,5.30218182 L10.5006258,7.18136364 L11.4411097,6.85713636 C11.5116065,6.83279545 11.5849484,6.82038636 11.6587645,6.82038636 C11.9458097,6.82038636 12.2012419,7.00413636 12.2943419,7.27761364 C12.414471,7.63031818 12.2271645,8.01563636 11.8765774,8.13654545 L10.9364097,8.46077273 L11.2692935,9.43854545 C11.3274613,9.60940909 11.3160806,9.793 11.2372065,9.95511364 C11.1581742,10.1173864 11.0212903,10.2389318 10.851529,10.2974773 C10.7808742,10.3218182 10.7076903,10.3342273 10.6337161,10.3342273 L10.621071,10.3340682 C10.3397161,10.3288182 10.0893419,10.1450682 9.99813871,9.877 L9.66525484,8.89922727 L7.72896452,9.56709091 L8.06184839,10.5448636 L8.06184839,10.5448636 Z M14.2306323,4.95743182 C13.100471,1.45647727 11.6636645,0.0283181818 9.27135806,0.0283181818 C8.35094839,0.0283181818 7.24765806,0.242931818 5.89810323,0.68425 C3.45600645,1.48288636 2.07989677,2.40609091 1.4361,3.67802273 C0.792145161,4.94979545 0.858848387,6.61309091 1.65233226,9.07088636 C2.78249355,12.5718409 4.2193,13.9998409 6.61176452,14 L6.61223871,14 C7.53233226,14 8.63546452,13.7853864 9.98486129,13.3442273 C12.4269581,12.5455909 13.8030677,11.6222273 14.4470226,10.3504545 C15.0908194,9.07868182 15.0241161,7.41522727 14.2306323,4.95743182 L14.2306323,4.95743182 L14.2306323,4.95743182 Z" id="Fill-3"></path>
                                        </g>
                                    </g>
                                    <path d="M23.6103387,4.03072727 C24.0314226,4.21559091 24.0620871,4.35431818 23.7328387,4.98622727 C23.3960032,5.63356818 23.3117548,5.67206818 22.8982581,5.50247727 C22.3775935,5.27911364 21.7115097,5.10952273 21.2828387,5.10952273 C20.5785032,5.10952273 20.1114226,5.36375 20.1114226,5.74906818 C20.1114226,7.02068182 24.1463355,6.33484091 24.1463355,9.04734091 C24.1463355,10.4112273 22.9825065,11.3205909 21.2368419,11.3205909 C20.318171,11.3205909 19.1850065,11.0124318 18.4040097,10.6116818 C18.0135903,10.4112273 17.990671,10.2957273 18.3275065,9.64838636 C18.6185032,9.07820455 18.7103387,9.01647727 19.1314226,9.19370455 C19.7975065,9.48659091 20.6396742,9.70995455 21.2063355,9.70995455 C21.8493419,9.70995455 22.278171,9.44809091 22.278171,9.06277273 C22.278171,7.82981818 18.1743419,8.41543182 18.1743419,5.78756818 C18.1743419,4.39281818 19.3304258,3.46038636 21.0607581,3.46038636 C21.8724194,3.46038636 22.8982581,3.70697727 23.6103387,4.03072727" id="Fill-5"></path>
                                    <path d="M26.864571,0.809454545 L26.864571,10.9198409 C26.864571,11.074 26.7038194,11.2357955 26.4741516,11.2357955 L25.4174903,11.2357955 C25.1878226,11.2357955 25.027071,11.074 25.027071,10.9198409 L25.027071,0.809454545 C25.027071,0.308636364 25.1649032,0.262340909 25.9457419,0.262340909 C26.8339065,0.262340909 26.864571,0.324068182 26.864571,0.809454545" id="Fill-6"></path>
                                    <path d="M29.5059871,9.01647727 C29.5059871,9.53272727 29.9424032,9.87954545 30.6009,9.87954545 C31.397071,9.87954545 32.1167387,9.49422727 32.5378226,8.83925 L32.5378226,8.16104545 C32.1167387,7.99925 31.6038194,7.90681818 31.1444839,7.90681818 C30.1644839,7.90681818 29.5059871,8.37693182 29.5059871,9.01647727 L29.5059871,9.01647727 L29.5059871,9.01647727 Z M34.3753226,6.49663636 L34.3753226,10.8504773 C34.3753226,11.0816364 34.214571,11.2435909 33.9849032,11.2435909 L32.9435742,11.2435909 C32.7063194,11.2435909 32.5378226,11.0663636 32.5531548,10.8274091 L32.5684871,10.3572955 C32.0019839,10.9892045 31.1903226,11.3205909 30.3788194,11.3205909 C28.8014935,11.3205909 27.7449903,10.4035909 27.7449903,9.03190909 C27.7449903,7.57543182 28.9394839,6.59686364 30.7309871,6.58906818 C31.4124032,6.58906818 32.0324903,6.71236364 32.5378226,6.92045455 L32.5378226,6.41947727 C32.5378226,5.61813636 31.9099903,5.14038636 30.8459,5.14038636 C30.3481548,5.14038636 29.7356548,5.34068182 29.2456548,5.62577273 C28.8705677,5.8415 28.7785742,5.82622727 28.3728226,5.21738636 C27.9746581,4.60854545 27.9899903,4.49304545 28.3728226,4.24645455 C29.1078226,3.76870455 30.1031548,3.46038636 31.0219839,3.46038636 C33.0814065,3.46038636 34.3753226,4.58547727 34.3753226,6.49663636 L34.3753226,6.49663636 L34.3753226,6.49663636 Z" id="Fill-7"></path>
                                    <g id="Group-11" transform="translate(35.141935, 0.159091)">
                                        <path d="M6.40019032,3.88706818 C6.78302258,4.11043182 6.79835484,4.23372727 6.37727097,4.88870455 C5.97910645,5.50518182 5.91019032,5.54384091 5.48910645,5.32795455 C5.16760323,5.15852273 4.65452581,5.01215909 4.23344194,5.01215909 C2.90886129,5.01215909 2.02844194,5.8905 2.02844194,7.21604545 C2.02844194,8.59536364 2.90886129,9.52015909 4.23344194,9.52015909 C4.69293548,9.52015909 5.26702581,9.34293182 5.64227097,9.13484091 C6.02510323,8.91131818 6.10935161,8.92675 6.51510323,9.52015909 C6.88260323,10.0749091 6.87485806,10.2058409 6.54560968,10.4371591 C5.9561871,10.8455455 5.02202581,11.1615 4.20277742,11.1615 C1.75277742,11.1615 0.114280645,9.58172727 0.114280645,7.21604545 C0.114280645,4.86563636 1.75277742,3.30129545 4.21810968,3.30129545 C4.96844194,3.30129545 5.84901935,3.55568182 6.40019032,3.88706818" id="Fill-8"></path>
                                        <path d="M14.393671,10.1212045 C14.6998419,10.5141591 14.5773419,10.6528864 13.8116774,10.9303409 C13.0308387,11.2154318 12.923671,11.2 12.6480065,10.8379091 L10.4583387,7.89409091 L9.47818065,8.84959091 L9.47818065,10.76075 C9.47818065,10.9149091 9.31742903,11.0767045 9.08776129,11.0767045 L8.03125806,11.0767045 C7.80159032,11.0767045 7.64068065,10.9149091 7.64068065,10.76075 L7.64068065,0.650363636 C7.64068065,0.149545455 7.7785129,0.10325 8.55950968,0.10325 C9.44767419,0.10325 9.47818065,0.164977273 9.47818065,0.650363636 L9.47818065,6.39911364 L12.4795097,3.50175 C12.8087581,3.18579545 12.9925871,3.20886364 13.5820097,3.60181818 C14.2329194,4.02563636 14.2787581,4.14129545 13.9648419,4.44945455 L11.7291774,6.63806818 L14.393671,10.1212045" id="Fill-10"></path>
                                    </g>
                                </g>
                            </g>
                        </g>
                        <text id="Sign-in-with" fill="#000000" sketch:type="MSTextLayer" font-family="Helvetica" font-size="11.2" font-weight="normal">
                            <tspan x="0" y="11">Sign in with</tspan>
                        </text>
                    </g>
                </g>
            </g>
        </g>
    </g>
</svg>